# xmcd CD database file
#
# Track frame offsets:
#	150
#	13818
#	40838
#	60588
#	88568
#	136001
#	147016
#	194670
#
# Disc length: 2788 seconds
#
# Revision: 0
# Processed by: cddbd v1.5.1PL0 Copyright (c) Steve Scherf et al.
# Submitted via: CDex 1.51
#
DISCID=670ae208
DTITLE=浅倉大介 - Green Method -緑の中庸秩序系-
DYEAR=2004
DGENRE=Electronic
TTITLE0=The forbidden fruit -kindan no mi-
TTITLE1=Personal Safety
TTITLE2=Quantum Mechanics Rainbow IV
TTITLE3=Trick Scan -chloroplast ver.-
TTITLE4=Jade of sorrow
TTITLE5=etude on G-String
TTITLE6=Paranoia Method
TTITLE7=The Garden of Eden -Adam and Eve-
EXTD=YEAR: 2004
EXTT0=
EXTT1=
EXTT2=
EXTT3=
EXTT4=
EXTT5=
EXTT6=
EXTT7=
PLAYORDER=
